<?xml version="1.0" encoding="utf-8"?>
<!-- Generator: Adobe Illustrator 24.2.3, SVG Export Plug-In . SVG Version: 6.00 Build 0)  -->
<svg version="1.1" id="Capa_1" xmlns="http://www.w3.org/2000/svg" xmlns:xlink="http://www.w3.org/1999/xlink" x="0px" y="0px"
	 viewBox="0 0 361.8 193.6" style="enable-background:new 0 0 361.8 193.6;" xml:space="preserve">
<style type="text/css">
	.st0{enable-background:new    ;}
	.st1{fill:#EBEDFF;}
</style>
<g id="LOGO">
	<g id="logo-2">
		<g id="Letras">
			<g class="st0">
				<path class="st1" d="M155.2,52.9l8.9-0.4v0.8c-1,0.2-1.8,0.5-2.3,1s-1.2,1.6-2.1,3.2c-0.8,1.7-2,3.6-3.6,5.7
					c1.5,1.2,2.7,2.1,3.7,2.6c0.7,0.3,1.3,0.5,1.9,0.4c1.1-0.1,2-0.8,2.8-2.2l0.9,0.4c-1.1,2.4-2.2,4-3.5,5.1
					c-1,0.8-2.1,1.2-3.4,1.3c-1.1,0.1-2.2-0.1-3.2-0.6c-1-0.4-2.3-1.3-3.8-2.5c-1.7,1.3-3.3,2.2-4.9,2.8c-1.5,0.6-3.2,1-4.8,1
					c-2.7,0.1-4.9-0.5-6.6-1.9s-2.6-3.1-2.7-5c-0.1-2.1,0.6-4,2-5.7s3.6-3.1,6.4-4.4c-0.4-0.9-0.7-1.8-1-2.7
					c-0.2-0.9-0.4-1.7-0.4-2.5c-0.1-2.3,0.6-4.2,2.1-5.8s3.5-2.5,6-2.6c2-0.1,3.6,0.3,4.8,1.3c1.2,0.9,1.9,2.1,1.9,3.4
					c0.1,1.6-0.5,3-1.6,4.2s-3,2.4-5.6,3.4c1.8,2.8,4.3,5.7,7.5,8.8c2-2.5,2.9-4.5,2.8-6.2c0-0.6-0.3-1.1-0.7-1.5s-1.1-0.6-1.9-0.7
					L155.2,52.9z M141.7,55.9c-1.1,0.5-1.9,1.1-2.3,1.7c-0.6,0.8-0.9,1.7-0.9,2.7c0.1,1.3,0.5,2.6,1.4,3.9c0.8,1.3,1.8,2.3,3,2.9
					c1.1,0.7,2.2,1,3.3,0.9c0.5,0,1.1-0.2,1.8-0.4c0.7-0.3,1.4-0.7,2.2-1.2C146.5,63.1,143.7,59.6,141.7,55.9z M146.6,52.1
					c1.5-0.6,2.4-1.3,2.9-1.9c0.5-0.7,0.7-1.4,0.7-2.3c-0.1-1.6-0.6-2.9-1.5-4c-0.6-0.7-1.3-1-2.1-1c-0.7,0-1.2,0.3-1.7,0.9
					c-0.5,0.6-0.7,1.3-0.6,2.2c0,0.7,0.2,1.4,0.5,2.2C145,48.9,145.7,50.2,146.6,52.1z"/>
			</g>
			<g>
				<path class="st1" d="M69.4,0v3.2h4.2c2.9-0.1,5.8,0.4,8.5,1.7c1.8,0.8,3.3,2.2,4.2,3.9c0.7,1.5,1,5.3,1,11.3v77.1
					c0.1,3.7-0.3,7.3-1,10.9c-0.8,3.9-1.2,5.5-3.8,7.4c-2.1,1.5-5.2,1.8-8.9,1.8h25.2V0H69.4z"/>
			</g>
			<g>
				<path class="st1" d="M184.2,75.8c-1.7-0.2-3.2,1.1-3.4,2.8c0,0.1,0,0.2,0,0.2c-0.3,10.3-2.1,16.8-5.1,21.1
					c-3.3,4.7-3.9,5.7-8.4,7.9s-15.2,3-22,3h-10.6c-6,0-9.8-0.3-11.4-0.8c-1.9-0.6-3.5-1.9-4.4-3.7c-0.7-1.6-1.1-5.5-1.1-11.5V20
					c0-5.9,0.3-9.5,1-10.9c0.8-1.8,2.1-3.2,3.8-4.2c2.8-1.3,5.8-1.9,8.9-1.8h5.5V0h-30.4v117.3h76c1.7,0,3.1-1.3,3.1-3l1.1-35.3
					C187,77.4,185.8,76,184.2,75.8z"/>
			</g>
			<g>
				<path class="st1" d="M207,117.3L207,117.3z"/>
			</g>
			<g>
				<path class="st1" d="M184,0h-22.1v3.2c3.9,0.1,6.9,0.7,8.9,1.6s4.4,3,7.1,6.1l1.9,2.2c0.5,0.6,0.8,1.3,0.8,2.1v81.6
					c0,6.2-1.4,10.6-4.1,13.2c-2.8,2.6-7.6,3.9-14.6,4v3.2h42c-4.1,0.1-8.1-1.2-11.4-3.5c-3.4-2.4-5-10.1-5-16.9V30.5
					c0-1.7,1.4-3.1,3.1-3.1c0.9,0,1.8,0.4,2.4,1.1l80.5,88.8h3.2v-13.2L184,0z"/>
			</g>
			<g>
				<path class="st1" d="M251.4,0v3.2c7.1-0.1,12.1,1.5,15.1,4.8c2.2,2.5,3.3,7.2,3.3,14.3v42.1c0,1.7-1.4,3.1-3.1,3.1
					c-0.9,0-1.7-0.4-2.3-1.1L208.1,1.1c-0.6-0.7-1.5-1.1-2.4-1.1h-12.6l83.7,94V22.3c0-5.5,0.5-9.4,1.5-11.7
					c0.9-2.1,2.4-3.8,4.3-4.9c1.9-1,5.5-1.8,10.8-2.5V0H251.4z"/>
			</g>
		</g>
	</g>
	<g id="back">
		<g class="st0">
			<path class="st1" d="M0,136.2h3.9V154h11v3.3H0V136.2z"/>
		</g>
		<g class="st0">
			<path class="st1" d="M25.8,155.1c-1.6-1.6-2.4-4-2.4-7v-11.9h3.9V148c0,4.1,1.8,6.2,5.3,6.2s5.3-2.1,5.3-6.2v-11.7h3.8v11.9
				c0,3-0.8,5.4-2.4,7c-1.6,1.6-3.9,2.4-6.8,2.4S27.4,156.8,25.8,155.1z"/>
			<path class="st1" d="M56.9,156.2c-1.7-0.9-3.1-2.2-4-3.9c-1-1.6-1.5-3.5-1.5-5.6s0.5-3.9,1.5-5.6c1-1.6,2.3-2.9,4-3.9
				s3.6-1.4,5.8-1.4c1.7,0,3.3,0.3,4.7,0.9c1.4,0.6,2.6,1.5,3.6,2.6l-2.5,2.4c-1.5-1.6-3.4-2.5-5.6-2.5c-1.4,0-2.7,0.3-3.9,0.9
				c-1.1,0.6-2,1.5-2.7,2.6c-0.6,1.1-1,2.4-1,3.8c0,1.4,0.3,2.7,1,3.8s1.5,2,2.7,2.6c1.1,0.6,2.4,0.9,3.9,0.9c2.2,0,4.1-0.8,5.6-2.5
				l2.5,2.4c-1,1.1-2.2,2-3.6,2.6c-1.4,0.6-3,0.9-4.7,0.9C60.6,157.6,58.6,157.1,56.9,156.2z"/>
			<path class="st1" d="M96.3,154v3.3H80.5v-21h15.4v3.3H84.4v5.5h10.2v3.2H84.4v5.8h11.9V154z"/>
			<path class="st1" d="M120.1,157.3l-4.3-6.2c-0.2,0-0.5,0-0.8,0h-4.7v6.1h-3.9v-21h8.7c1.8,0,3.4,0.3,4.8,0.9
				c1.4,0.6,2.4,1.5,3.1,2.6s1.1,2.5,1.1,4c0,1.6-0.4,2.9-1.2,4.1s-1.9,2-3.3,2.6l4.8,6.9H120.1z M118.7,140.6
				c-0.9-0.7-2.2-1.1-3.9-1.1h-4.6v8.4h4.6c1.7,0,3-0.4,3.9-1.1c0.9-0.7,1.3-1.8,1.3-3.1C120,142.4,119.6,141.3,118.7,140.6z"/>
			<path class="st1" d="M138.1,156.2c-1.7-0.9-3.1-2.2-4.1-3.9c-1-1.7-1.5-3.5-1.5-5.5s0.5-3.9,1.5-5.5c1-1.7,2.3-2.9,4.1-3.9
				c1.7-0.9,3.7-1.4,5.8-1.4s4.1,0.5,5.8,1.4c1.7,0.9,3.1,2.2,4.1,3.9c1,1.6,1.5,3.5,1.5,5.6s-0.5,3.9-1.5,5.6s-2.3,2.9-4.1,3.9
				c-1.7,0.9-3.7,1.4-5.8,1.4S139.8,157.1,138.1,156.2z M147.6,153.2c1.1-0.6,2-1.5,2.6-2.6s1-2.4,1-3.8c0-1.4-0.3-2.7-1-3.8
				c-0.7-1.1-1.5-2-2.6-2.6s-2.4-0.9-3.8-0.9c-1.4,0-2.7,0.3-3.8,0.9s-2,1.5-2.6,2.6s-1,2.4-1,3.8c0,1.4,0.3,2.7,1,3.8
				c0.7,1.1,1.5,2,2.6,2.6s2.4,0.9,3.8,0.9C145.2,154.1,146.5,153.8,147.6,153.2z"/>
			<path class="st1" d="M194.8,157.6l-2.6-2.6c-2,1.7-4.3,2.5-7.1,2.5c-1.5,0-2.8-0.2-3.9-0.7c-1.2-0.5-2.1-1.1-2.7-2
				c-0.6-0.9-1-1.8-1-2.9c0-1.3,0.4-2.4,1.1-3.4c0.8-1,2-2,3.7-2.9c-0.8-0.8-1.4-1.6-1.8-2.4c-0.4-0.7-0.5-1.5-0.5-2.3
				c0-1.5,0.6-2.7,1.7-3.6c1.1-0.9,2.6-1.4,4.4-1.4c1.7,0,3.1,0.4,4.1,1.2c1,0.8,1.5,2,1.5,3.4c0,1.1-0.3,2-1,2.9
				c-0.7,0.8-1.8,1.7-3.3,2.6l4.5,4.3c0.5-1,0.9-2.2,1.2-3.5l3,1c-0.4,1.9-1,3.5-1.9,4.8l2.6,2.5L194.8,157.6z M189.9,152.9
				l-5.6-5.3c-1.2,0.7-2,1.3-2.5,1.9s-0.7,1.3-0.7,2.1c0,0.9,0.4,1.6,1.2,2.1c0.8,0.5,1.8,0.8,3.1,0.8
				C187.1,154.5,188.6,154,189.9,152.9z M184.1,139.3c-0.5,0.4-0.7,0.9-0.7,1.6c0,0.5,0.1,0.9,0.4,1.4c0.3,0.4,0.8,1,1.5,1.8
				c1.2-0.7,2-1.2,2.5-1.7s0.7-1,0.7-1.6s-0.2-1.1-0.6-1.5s-1-0.5-1.8-0.5C185.3,138.7,184.6,138.9,184.1,139.3z"/>
			<path class="st1" d="M238.7,136.2v21h-3.3L223.8,143v14.2h-3.9v-21h3.2l11.6,14.2v-14.2H238.7L238.7,136.2z"/>
			<path class="st1" d="M250,136.2h3.9v21H250V136.2z"/>
		</g>
		<g class="st0">
			<path class="st1" d="M282,154v3.3h-15.8v-21h15.4v3.3h-11.4v5.5h10.2v3.2h-10.2v5.8H282V154z"/>
		</g>
		<g class="st0">
			<path class="st1" d="M311,136.2l-9.2,21H298l-9.2-21h4.2l7,16.2l7.1-16.2H311L311,136.2z"/>
		</g>
		<g class="st0">
			<path class="st1" d="M332.1,152.4h-10.5l-2.1,4.9h-4l9.5-21h3.8l9.5,21h-4.1L332.1,152.4z M330.8,149.3l-4-9.2l-3.9,9.2H330.8z"
				/>
			<path class="st1" d="M348.4,156.9c-1.5-0.5-2.7-1.1-3.6-1.8l1.4-3c0.9,0.7,1.9,1.2,3.2,1.7s2.5,0.6,3.8,0.6
				c1.6,0,2.7-0.3,3.5-0.8s1.2-1.2,1.2-2c0-0.6-0.2-1.1-0.6-1.5s-1-0.7-1.6-0.9c-0.7-0.2-1.6-0.5-2.7-0.8c-1.6-0.4-2.9-0.8-3.9-1.1
				c-1-0.4-1.8-1-2.6-1.8c-0.7-0.8-1.1-1.9-1.1-3.3c0-1.2,0.3-2.2,0.9-3.2s1.6-1.7,2.9-2.3s2.8-0.8,4.7-0.8c1.3,0,2.5,0.2,3.8,0.5
				c1.3,0.3,2.3,0.8,3.2,1.4l-1.2,3c-0.9-0.5-1.9-1-2.9-1.2c-1-0.3-2-0.4-2.9-0.4c-1.5,0-2.7,0.3-3.4,0.8c-0.8,0.5-1.1,1.2-1.1,2.1
				c0,0.6,0.2,1.1,0.6,1.5s1,0.7,1.6,0.9c0.6,0.2,1.6,0.5,2.7,0.8c1.6,0.4,2.8,0.7,3.8,1.1s1.9,1,2.6,1.8c0.7,0.8,1.1,1.9,1.1,3.2
				c0,1.2-0.3,2.2-0.9,3.2c-0.6,0.9-1.6,1.7-2.9,2.3s-2.8,0.8-4.7,0.8C351.5,157.6,350,157.3,348.4,156.9z"/>
		</g>
		<g class="st0">
			<path class="st1" d="M71.3,192.3v1.1H59.2V176h11.7v1.1H60.5v6.9h9.3v1.1h-9.3v7.2L71.3,192.3L71.3,192.3z"/>
		</g>
		<g class="st0">
			<path class="st1" d="M76.8,192.9c-1.2-0.4-2.1-1-2.7-1.7l0.6-0.9c0.6,0.6,1.4,1.2,2.5,1.6c1,0.4,2.1,0.6,3.3,0.6
				c1.7,0,2.9-0.3,3.8-0.9c0.8-0.6,1.3-1.5,1.3-2.5c0-0.8-0.2-1.4-0.7-1.9s-1-0.8-1.7-1.1c-0.7-0.3-1.6-0.5-2.7-0.8
				c-1.3-0.3-2.3-0.6-3.1-0.9s-1.4-0.8-2-1.4c-0.5-0.6-0.8-1.5-0.8-2.5c0-0.8,0.2-1.6,0.7-2.3c0.4-0.7,1.1-1.3,2.1-1.7
				c0.9-0.4,2.1-0.6,3.5-0.6c1,0,1.9,0.1,2.8,0.4c0.9,0.3,1.7,0.7,2.4,1.1l-0.5,1c-0.7-0.5-1.5-0.8-2.3-1.1
				c-0.8-0.2-1.7-0.4-2.5-0.4c-1.6,0-2.8,0.3-3.7,1c-0.8,0.6-1.2,1.5-1.2,2.5c0,0.8,0.2,1.4,0.7,1.9c0.4,0.5,1,0.8,1.7,1.1
				c0.7,0.3,1.6,0.5,2.7,0.8c1.3,0.3,2.3,0.6,3.1,0.9s1.4,0.8,2,1.4c0.5,0.6,0.8,1.4,0.8,2.5c0,0.8-0.2,1.6-0.7,2.3
				c-0.5,0.7-1.2,1.3-2.1,1.7c-0.9,0.4-2.1,0.6-3.5,0.6C79.2,193.6,78,193.4,76.8,192.9z"/>
		</g>
		<g class="st0">
			<path class="st1" d="M94.1,177.1h-6.3V176h13.9v1.1h-6.3v16.3h-1.3L94.1,177.1L94.1,177.1z"/>
		</g>
		<g class="st0">
			<path class="st1" d="M106,191.7c-1.2-1.3-1.8-3.2-1.8-5.6V176h1.3v10c0,2.1,0.5,3.8,1.5,4.8c1,1.1,2.4,1.6,4.3,1.6
				c1.8,0,3.3-0.5,4.2-1.6c1-1.1,1.5-2.7,1.5-4.8v-10h1.3v10.1c0,2.5-0.6,4.3-1.8,5.6s-3,1.9-5.2,1.9
				C108.9,193.6,107.2,193,106,191.7z"/>
			<path class="st1" d="M124.1,176h6.9c1.8,0,3.4,0.4,4.8,1.1c1.4,0.7,2.5,1.8,3.3,3.1c0.8,1.3,1.2,2.8,1.2,4.5s-0.4,3.2-1.2,4.5
				c-0.8,1.3-1.9,2.4-3.3,3.1c-1.4,0.7-3,1.1-4.8,1.1h-6.9V176z M130.9,192.3c1.6,0,3-0.3,4.3-1c1.2-0.6,2.2-1.5,2.8-2.7
				c0.7-1.1,1-2.5,1-3.9c0-1.5-0.3-2.8-1-3.9c-0.7-1.1-1.6-2-2.8-2.7c-1.2-0.6-2.7-1-4.3-1h-5.5v15.2H130.9z"/>
			<path class="st1" d="M144.7,176h1.3v17.5h-1.3V176z"/>
			<path class="st1" d="M154.9,192.4c-1.4-0.8-2.5-1.8-3.3-3.2c-0.8-1.3-1.2-2.9-1.2-4.5c0-1.7,0.4-3.2,1.2-4.5
				c0.8-1.3,1.9-2.4,3.3-3.2c1.4-0.8,2.9-1.2,4.6-1.2s3.3,0.4,4.6,1.1c1.3,0.7,2.5,1.8,3.3,3.2c0.8,1.3,1.2,2.9,1.2,4.5
				c0,1.7-0.4,3.2-1.2,4.5c-0.8,1.3-1.9,2.4-3.3,3.2c-1.4,0.8-2.9,1.1-4.6,1.1S156.2,193.2,154.9,192.4z M163.5,191.4
				c1.2-0.7,2.1-1.6,2.8-2.8c0.7-1.2,1-2.5,1-3.9s-0.3-2.8-1-3.9c-0.7-1.1-1.6-2.1-2.8-2.8c-1.2-0.7-2.5-1-4-1s-2.8,0.3-4,1
				c-1.2,0.7-2.1,1.6-2.8,2.8c-0.7,1.2-1,2.5-1,3.9s0.3,2.8,1,3.9c0.7,1.1,1.6,2.1,2.8,2.8c1.2,0.7,2.5,1,4,1
				S162.3,192.1,163.5,191.4z"/>
			<path class="st1" d="M178.3,192.9c-0.8-0.4-1.5-1.1-2-1.8l0.8-0.8c0.5,0.7,1.1,1.3,1.7,1.6c0.7,0.4,1.4,0.6,2.2,0.6
				c1.2,0,2-0.3,2.6-1s0.9-1.7,0.9-3.1v-11.2h-6.4V176h7.7v12.3c0,1.7-0.4,3.1-1.2,3.9c-0.8,0.9-2,1.3-3.5,1.3
				C180,193.6,179.2,193.4,178.3,192.9z"/>
			<path class="st1" d="M193.4,191.7c-1.2-1.3-1.8-3.2-1.8-5.6V176h1.3v10c0,2.1,0.5,3.8,1.5,4.8c1,1.1,2.4,1.6,4.3,1.6
				c1.8,0,3.3-0.5,4.2-1.6c1-1.1,1.5-2.7,1.5-4.8v-10h1.3v10.1c0,2.5-0.6,4.3-1.8,5.6s-3,1.9-5.2,1.9S194.6,193,193.4,191.7z"/>
			<path class="st1" d="M223.6,193.5l-4.2-5.8c-0.6,0.1-1.2,0.1-1.7,0.1h-5v5.7h-1.3V176h6.3c2.2,0,3.9,0.5,5.2,1.6s1.9,2.5,1.9,4.3
				c0,1.4-0.4,2.5-1.1,3.5c-0.7,0.9-1.7,1.6-3,2l4.4,6.1H223.6z M217.7,186.6c1.9,0,3.3-0.4,4.3-1.2c1-0.8,1.5-2,1.5-3.5
				s-0.5-2.7-1.5-3.5s-2.4-1.2-4.3-1.2h-5v9.5L217.7,186.6L217.7,186.6z"/>
			<path class="st1" d="M229.4,176h1.3v17.5h-1.3V176z"/>
			<path class="st1" d="M236.8,176h6.9c1.8,0,3.4,0.4,4.8,1.1s2.5,1.8,3.3,3.1s1.2,2.8,1.2,4.5s-0.4,3.2-1.2,4.5
				c-0.8,1.3-1.9,2.4-3.3,3.1s-3,1.1-4.8,1.1h-6.9V176z M243.6,192.3c1.6,0,3-0.3,4.3-1c1.2-0.6,2.2-1.5,2.8-2.7
				c0.7-1.1,1-2.5,1-3.9c0-1.5-0.3-2.8-1-3.9s-1.6-2-2.8-2.7c-1.2-0.6-2.7-1-4.3-1h-5.5v15.2H243.6z"/>
			<path class="st1" d="M257.4,176h1.3v17.5h-1.3V176z"/>
		</g>
		<g class="st0">
			<path class="st1" d="M266.4,192.4c-1.4-0.8-2.5-1.8-3.2-3.2c-0.8-1.3-1.2-2.9-1.2-4.5c0-1.7,0.4-3.2,1.2-4.5
				c0.8-1.3,1.9-2.4,3.2-3.2s2.9-1.1,4.6-1.1c1.3,0,2.4,0.2,3.5,0.6s2,1,2.7,1.8l-0.8,0.8c-1.4-1.4-3.2-2.1-5.4-2.1
				c-1.5,0-2.8,0.3-4,1s-2.1,1.6-2.8,2.8c-0.7,1.2-1,2.5-1,3.9s0.3,2.8,1,3.9c0.7,1.2,1.6,2.1,2.8,2.8c1.2,0.7,2.5,1,4,1
				c2.2,0,4-0.7,5.4-2.1l0.8,0.8c-0.7,0.8-1.7,1.4-2.7,1.8s-2.2,0.6-3.5,0.6C269.4,193.6,267.8,193.2,266.4,192.4z"/>
		</g>
		<g class="st0">
			<path class="st1" d="M283.9,192.4c-1.4-0.8-2.5-1.8-3.3-3.2c-0.8-1.3-1.2-2.9-1.2-4.5c0-1.7,0.4-3.2,1.2-4.5s1.9-2.4,3.3-3.2
				c1.4-0.8,2.9-1.2,4.6-1.2s3.3,0.4,4.6,1.1c1.4,0.8,2.5,1.8,3.3,3.2c0.8,1.3,1.2,2.9,1.2,4.5c0,1.7-0.4,3.2-1.2,4.5
				c-0.8,1.3-1.9,2.4-3.3,3.2c-1.4,0.8-2.9,1.1-4.6,1.1S285.2,193.2,283.9,192.4z M292.5,191.4c1.2-0.7,2.1-1.6,2.8-2.8
				c0.7-1.2,1-2.5,1-3.9s-0.3-2.8-1-3.9c-0.7-1.2-1.6-2.1-2.8-2.8c-1.2-0.7-2.5-1-4-1s-2.8,0.3-4,1s-2.1,1.6-2.8,2.8
				c-0.7,1.2-1,2.5-1,3.9s0.3,2.8,1,3.9c0.7,1.2,1.6,2.1,2.8,2.8c1.2,0.7,2.5,1,4,1S291.3,192.1,292.5,191.4z"/>
		</g>
		<g>
			<path class="st1" d="M231.2,172.5h1.8l-3,2h-1.4L231.2,172.5z"/>
		</g>
	</g>
</g>
</svg>
