<?xml version="1.0" encoding="utf-8"?>
<!-- Generator: Adobe Illustrator 24.2.3, SVG Export Plug-In . SVG Version: 6.00 Build 0)  -->
<svg version="1.1" id="Capa_1" xmlns="http://www.w3.org/2000/svg" xmlns:xlink="http://www.w3.org/1999/xlink" x="0px" y="0px"
	 viewBox="0 0 291 152.8" style="enable-background:new 0 0 291 152.8;" xml:space="preserve">
<style type="text/css">
	.st0{enable-background:new    ;}
	.st1{fill:#EBEDFF;}
</style>
<g id="LOGO">
	<g id="logo-2">
		<g id="Letras">
			<g class="st0">
				<path class="st1" d="M111.4,68.9l11.5-0.6l0.1,1.1c-1.3,0.3-2.3,0.7-3,1.3s-1.6,2-2.7,4.2s-2.6,4.6-4.6,7.4
					c2,1.6,3.6,2.7,4.8,3.3c0.9,0.4,1.7,0.6,2.5,0.6c1.4-0.1,2.6-1,3.6-2.9l1.2,0.6c-1.4,3.1-2.9,5.3-4.5,6.6
					c-1.3,1-2.7,1.6-4.4,1.6c-1.4,0.1-2.8-0.2-4.2-0.7c-1.3-0.6-3-1.6-4.9-3.2c-2.2,1.7-4.4,2.9-6.4,3.7s-4.1,1.2-6.3,1.4
					c-3.5,0.2-6.4-0.6-8.5-2.4s-3.3-4-3.4-6.6c-0.1-2.8,0.7-5.2,2.6-7.4s4.7-4.1,8.4-5.8c-0.5-1.2-1-2.3-1.3-3.5
					c-0.3-1.1-0.5-2.2-0.5-3.3c-0.1-3,0.8-5.5,2.8-7.5c2-2.1,4.6-3.2,7.8-3.4c2.6-0.1,4.7,0.4,6.3,1.6c1.6,1.2,2.4,2.7,2.5,4.4
					c0.1,2.1-0.6,3.9-2.1,5.5s-3.9,3.1-7.2,4.5c2.3,3.6,5.5,7.4,9.8,11.4c2.6-3.2,3.8-5.9,3.7-8.1c0-0.8-0.3-1.4-0.9-1.9
					s-1.4-0.8-2.4-0.9L111.4,68.9z M93.8,72.8c-1.4,0.7-2.5,1.4-3,2.2c-0.8,1.1-1.2,2.3-1.1,3.5c0.1,1.7,0.7,3.4,1.8,5.1
					c1.1,1.7,2.4,2.9,3.8,3.8c1.5,0.9,2.9,1.3,4.3,1.2c0.7,0,1.5-0.2,2.3-0.6c0.9-0.3,1.8-0.9,2.8-1.5
					C100.1,82.2,96.5,77.6,93.8,72.8z M100.3,67.8c1.9-0.8,3.2-1.7,3.8-2.5c0.6-0.9,0.9-1.9,0.8-3c-0.1-2.1-0.7-3.8-1.9-5.2
					c-0.8-0.9-1.7-1.3-2.7-1.3c-0.9,0-1.6,0.4-2.2,1.1c-0.6,0.7-0.8,1.7-0.8,2.8c0,0.9,0.2,1.9,0.6,2.9
					C98.2,63.7,99,65.4,100.3,67.8z"/>
			</g>
			<g>
				<path class="st1" d="M0,0.2v4.2h5.5c3.8-0.2,7.6,0.6,11,2.2c2.3,1.1,4.2,2.9,5.4,5.2c0.9,2,1.3,6.8,1.3,14.6v100.3
					c0.1,4.8-0.4,9.5-1.3,14.2c-1.1,5-1.5,7.1-4.9,9.5c-2.7,2-6.8,2.4-11.6,2.4h32.7V0.2H0z"/>
			</g>
			<g>
				<path class="st1" d="M149.2,98.7c-2.2-0.2-4.2,1.4-4.4,3.6c0,0.1,0,0.2,0,0.3c-0.4,13.4-2.7,21.8-6.6,27.4
					c-4.3,6.1-5,7.4-10.9,10.2c-5.8,2.8-19.8,3.8-28.6,3.8H84.9c-7.8,0-12.7-0.3-14.7-1c-2.5-0.7-4.6-2.5-5.7-4.8
					c-1-2.1-1.5-7.1-1.5-14.9V26.2c0-7.6,0.4-12.4,1.3-14.2c1-2.3,2.8-4.2,5-5.4c3.6-1.7,7.6-2.5,11.7-2.4h7.2V0H48.6v152.4h98.8
					c2.2,0,4-1.7,4.1-3.9l1.4-45.8C152.9,100.7,151.3,98.9,149.2,98.7z"/>
			</g>
			<g>
				<path class="st1" d="M178.9,152.6L178.9,152.6z"/>
			</g>
			<g>
				<path class="st1" d="M148.9,0.2h-28.7v4.2c4-0.1,7.9,0.7,11.6,2.1c3.6,2,6.7,4.8,9.2,8l2.5,2.9c0.6,0.7,1,1.7,1,2.7v106
					c0,8.1-1.8,13.8-5.4,17.2s-9.9,5.1-19,5.2v4.1h54.6c-5.3,0.1-10.5-1.5-14.8-4.6s-6.5-13.1-6.5-21.9V39.9c0-2.2,1.8-4.1,4-4.1
					c1.2,0,2.3,0.5,3.1,1.4l104.7,115.4h4.1v-17.2L148.9,0.2z"/>
			</g>
			<g>
				<path class="st1" d="M236.5,0.2v4.2c9.2-0.2,15.7,1.9,19.6,6.3c2.8,3.2,4.3,9.4,4.3,18.5v54.7c0,2.2-1.8,4-4,4.1
					c-1.2,0-2.3-0.5-3.1-1.4L180.1,1.7c-0.8-0.9-1.9-1.4-3.1-1.4h-16.5l108.8,122.1V29.3c0-7.2,0.7-12.2,2-15.3
					c1.1-2.7,3.1-5,5.6-6.4c2.4-1.3,7.1-2.4,14.1-3.2V0.3L236.5,0.2L236.5,0.2z"/>
			</g>
		</g>
	</g>
</g>
</svg>
